<svg width="249" height="222" viewBox="0 0 249 222" fill="none" xmlns="http://www.w3.org/2000/svg">
<rect x="15.5" width="1" height="200" fill="#DCDDE8"/>
<path d="M18.6895 214.055V215.355C18.6895 216.055 18.627 216.645 18.502 217.125C18.377 217.605 18.1973 217.992 17.9629 218.285C17.7285 218.578 17.4453 218.791 17.1133 218.924C16.7852 219.053 16.4141 219.117 16 219.117C15.6719 219.117 15.3691 219.076 15.0918 218.994C14.8145 218.912 14.5645 218.781 14.3418 218.602C14.123 218.418 13.9355 218.18 13.7793 217.887C13.623 217.594 13.5039 217.238 13.4219 216.82C13.3398 216.402 13.2988 215.914 13.2988 215.355V214.055C13.2988 213.355 13.3613 212.77 13.4863 212.297C13.6152 211.824 13.7969 211.445 14.0312 211.16C14.2656 210.871 14.5469 210.664 14.875 210.539C15.207 210.414 15.5781 210.352 15.9883 210.352C16.3203 210.352 16.625 210.393 16.9023 210.475C17.1836 210.553 17.4336 210.68 17.6523 210.855C17.8711 211.027 18.0566 211.258 18.209 211.547C18.3652 211.832 18.4844 212.182 18.5664 212.596C18.6484 213.01 18.6895 213.496 18.6895 214.055ZM17.5996 215.531V213.873C17.5996 213.49 17.5762 213.154 17.5293 212.865C17.4863 212.572 17.4219 212.322 17.3359 212.115C17.25 211.908 17.1406 211.74 17.0078 211.611C16.8789 211.482 16.7285 211.389 16.5566 211.33C16.3887 211.268 16.1992 211.236 15.9883 211.236C15.7305 211.236 15.502 211.285 15.3027 211.383C15.1035 211.477 14.9355 211.627 14.7988 211.834C14.666 212.041 14.5645 212.312 14.4941 212.648C14.4238 212.984 14.3887 213.393 14.3887 213.873V215.531C14.3887 215.914 14.4102 216.252 14.4531 216.545C14.5 216.838 14.5684 217.092 14.6582 217.307C14.748 217.518 14.8574 217.691 14.9863 217.828C15.1152 217.965 15.2637 218.066 15.4316 218.133C15.6035 218.195 15.793 218.227 16 218.227C16.2656 218.227 16.498 218.176 16.6973 218.074C16.8965 217.973 17.0625 217.814 17.1953 217.6C17.332 217.381 17.4336 217.102 17.5 216.762C17.5664 216.418 17.5996 216.008 17.5996 215.531Z" fill="#8D91A5"/>
<rect x="69.75" width="1" height="200" fill="#DCDDE8"/>
<path d="M69.4988 218.109V219H63.9148V218.221L66.7098 215.109C67.0535 214.727 67.3191 214.402 67.5066 214.137C67.698 213.867 67.8309 213.627 67.9051 213.416C67.9832 213.201 68.0223 212.982 68.0223 212.76C68.0223 212.479 67.9637 212.225 67.8465 211.998C67.7332 211.768 67.5652 211.584 67.3426 211.447C67.1199 211.311 66.8504 211.242 66.534 211.242C66.1551 211.242 65.8387 211.316 65.5848 211.465C65.3348 211.609 65.1473 211.812 65.0223 212.074C64.8973 212.336 64.8348 212.637 64.8348 212.977H63.7508C63.7508 212.496 63.8562 212.057 64.0672 211.658C64.2781 211.26 64.5906 210.943 65.0047 210.709C65.4187 210.471 65.9285 210.352 66.534 210.352C67.073 210.352 67.534 210.447 67.9168 210.639C68.2996 210.826 68.5926 211.092 68.7957 211.436C69.0027 211.775 69.1062 212.174 69.1062 212.631C69.1062 212.881 69.0633 213.135 68.9773 213.393C68.8953 213.646 68.7801 213.9 68.6316 214.154C68.4871 214.408 68.3172 214.658 68.1219 214.904C67.9305 215.15 67.7254 215.393 67.5066 215.631L65.2215 218.109H69.4988ZM76.6145 214.055V215.355C76.6145 216.055 76.552 216.645 76.427 217.125C76.302 217.605 76.1223 217.992 75.8879 218.285C75.6535 218.578 75.3703 218.791 75.0383 218.924C74.7102 219.053 74.3391 219.117 73.925 219.117C73.5969 219.117 73.2941 219.076 73.0168 218.994C72.7395 218.912 72.4895 218.781 72.2668 218.602C72.048 218.418 71.8605 218.18 71.7043 217.887C71.548 217.594 71.4289 217.238 71.3469 216.82C71.2648 216.402 71.2238 215.914 71.2238 215.355V214.055C71.2238 213.355 71.2863 212.77 71.4113 212.297C71.5402 211.824 71.7219 211.445 71.9562 211.16C72.1906 210.871 72.4719 210.664 72.8 210.539C73.132 210.414 73.5031 210.352 73.9133 210.352C74.2453 210.352 74.55 210.393 74.8273 210.475C75.1086 210.553 75.3586 210.68 75.5773 210.855C75.7961 211.027 75.9816 211.258 76.134 211.547C76.2902 211.832 76.4094 212.182 76.4914 212.596C76.5734 213.01 76.6145 213.496 76.6145 214.055ZM75.5246 215.531V213.873C75.5246 213.49 75.5012 213.154 75.4543 212.865C75.4113 212.572 75.3469 212.322 75.2609 212.115C75.175 211.908 75.0656 211.74 74.9328 211.611C74.8039 211.482 74.6535 211.389 74.4816 211.33C74.3137 211.268 74.1242 211.236 73.9133 211.236C73.6555 211.236 73.427 211.285 73.2277 211.383C73.0285 211.477 72.8605 211.627 72.7238 211.834C72.591 212.041 72.4895 212.312 72.4191 212.648C72.3488 212.984 72.3137 213.393 72.3137 213.873V215.531C72.3137 215.914 72.3352 216.252 72.3781 216.545C72.425 216.838 72.4934 217.092 72.5832 217.307C72.673 217.518 72.7824 217.691 72.9113 217.828C73.0402 217.965 73.1887 218.066 73.3566 218.133C73.5285 218.195 73.718 218.227 73.925 218.227C74.1906 218.227 74.423 218.176 74.6223 218.074C74.8215 217.973 74.9875 217.814 75.1203 217.6C75.257 217.381 75.3586 217.102 75.425 216.762C75.4914 216.418 75.5246 216.008 75.5246 215.531Z" fill="#8D91A5"/>
<rect x="124" width="1" height="200" fill="#DCDDE8"/>
<path d="M123.925 216.129V217.02H117.761V216.381L121.581 210.469H122.466L121.516 212.18L118.991 216.129H123.925ZM122.735 210.469V219H121.651V210.469H122.735ZM130.864 214.055V215.355C130.864 216.055 130.802 216.645 130.677 217.125C130.552 217.605 130.372 217.992 130.138 218.285C129.904 218.578 129.62 218.791 129.288 218.924C128.96 219.053 128.589 219.117 128.175 219.117C127.847 219.117 127.544 219.076 127.267 218.994C126.989 218.912 126.739 218.781 126.517 218.602C126.298 218.418 126.111 218.18 125.954 217.887C125.798 217.594 125.679 217.238 125.597 216.82C125.515 216.402 125.474 215.914 125.474 215.355V214.055C125.474 213.355 125.536 212.77 125.661 212.297C125.79 211.824 125.972 211.445 126.206 211.16C126.441 210.871 126.722 210.664 127.05 210.539C127.382 210.414 127.753 210.352 128.163 210.352C128.495 210.352 128.8 210.393 129.077 210.475C129.359 210.553 129.609 210.68 129.827 210.855C130.046 211.027 130.232 211.258 130.384 211.547C130.54 211.832 130.659 212.182 130.741 212.596C130.823 213.01 130.864 213.496 130.864 214.055ZM129.775 215.531V213.873C129.775 213.49 129.751 213.154 129.704 212.865C129.661 212.572 129.597 212.322 129.511 212.115C129.425 211.908 129.316 211.74 129.183 211.611C129.054 211.482 128.904 211.389 128.732 211.33C128.564 211.268 128.374 211.236 128.163 211.236C127.905 211.236 127.677 211.285 127.478 211.383C127.279 211.477 127.111 211.627 126.974 211.834C126.841 212.041 126.739 212.312 126.669 212.648C126.599 212.984 126.564 213.393 126.564 213.873V215.531C126.564 215.914 126.585 216.252 126.628 216.545C126.675 216.838 126.743 217.092 126.833 217.307C126.923 217.518 127.032 217.691 127.161 217.828C127.29 217.965 127.439 218.066 127.607 218.133C127.779 218.195 127.968 218.227 128.175 218.227C128.441 218.227 128.673 218.176 128.872 218.074C129.071 217.973 129.237 217.814 129.37 217.6C129.507 217.381 129.609 217.102 129.675 216.762C129.741 216.418 129.775 216.008 129.775 215.531Z" fill="#8D91A5"/>
<rect x="178.25" width="1" height="200" fill="#DCDDE8"/>
<path d="M176.569 210.457H176.663V211.377H176.569C175.995 211.377 175.514 211.471 175.128 211.658C174.741 211.842 174.434 212.09 174.208 212.402C173.981 212.711 173.817 213.059 173.716 213.445C173.618 213.832 173.569 214.225 173.569 214.623V215.877C173.569 216.256 173.614 216.592 173.704 216.885C173.794 217.174 173.917 217.418 174.073 217.617C174.229 217.816 174.405 217.967 174.6 218.068C174.8 218.17 175.007 218.221 175.221 218.221C175.471 218.221 175.694 218.174 175.889 218.08C176.085 217.982 176.249 217.848 176.382 217.676C176.518 217.5 176.622 217.293 176.692 217.055C176.762 216.816 176.798 216.555 176.798 216.27C176.798 216.016 176.766 215.771 176.704 215.537C176.641 215.299 176.546 215.088 176.417 214.904C176.288 214.717 176.126 214.57 175.93 214.465C175.739 214.355 175.511 214.301 175.245 214.301C174.944 214.301 174.663 214.375 174.401 214.523C174.143 214.668 173.93 214.859 173.762 215.098C173.598 215.332 173.505 215.588 173.481 215.865L172.907 215.859C172.962 215.422 173.063 215.049 173.212 214.74C173.364 214.428 173.552 214.174 173.774 213.979C174.001 213.779 174.253 213.635 174.53 213.545C174.811 213.451 175.108 213.404 175.421 213.404C175.846 213.404 176.214 213.484 176.522 213.645C176.831 213.805 177.085 214.02 177.284 214.289C177.483 214.555 177.63 214.855 177.723 215.191C177.821 215.523 177.87 215.865 177.87 216.217C177.87 216.619 177.813 216.996 177.7 217.348C177.587 217.699 177.417 218.008 177.19 218.273C176.968 218.539 176.692 218.746 176.364 218.895C176.036 219.043 175.655 219.117 175.221 219.117C174.761 219.117 174.358 219.023 174.014 218.836C173.671 218.645 173.386 218.391 173.159 218.074C172.932 217.758 172.762 217.406 172.649 217.02C172.536 216.633 172.479 216.24 172.479 215.842V215.332C172.479 214.73 172.54 214.141 172.661 213.562C172.782 212.984 172.991 212.461 173.288 211.992C173.589 211.523 174.005 211.15 174.536 210.873C175.067 210.596 175.745 210.457 176.569 210.457ZM185.114 214.055V215.355C185.114 216.055 185.052 216.645 184.927 217.125C184.802 217.605 184.622 217.992 184.388 218.285C184.154 218.578 183.87 218.791 183.538 218.924C183.21 219.053 182.839 219.117 182.425 219.117C182.097 219.117 181.794 219.076 181.517 218.994C181.239 218.912 180.989 218.781 180.767 218.602C180.548 218.418 180.361 218.18 180.204 217.887C180.048 217.594 179.929 217.238 179.847 216.82C179.765 216.402 179.724 215.914 179.724 215.355V214.055C179.724 213.355 179.786 212.77 179.911 212.297C180.04 211.824 180.222 211.445 180.456 211.16C180.691 210.871 180.972 210.664 181.3 210.539C181.632 210.414 182.003 210.352 182.413 210.352C182.745 210.352 183.05 210.393 183.327 210.475C183.609 210.553 183.859 210.68 184.077 210.855C184.296 211.027 184.482 211.258 184.634 211.547C184.79 211.832 184.909 212.182 184.991 212.596C185.073 213.01 185.114 213.496 185.114 214.055ZM184.025 215.531V213.873C184.025 213.49 184.001 213.154 183.954 212.865C183.911 212.572 183.847 212.322 183.761 212.115C183.675 211.908 183.566 211.74 183.433 211.611C183.304 211.482 183.154 211.389 182.982 211.33C182.814 211.268 182.624 211.236 182.413 211.236C182.155 211.236 181.927 211.285 181.728 211.383C181.529 211.477 181.361 211.627 181.224 211.834C181.091 212.041 180.989 212.312 180.919 212.648C180.849 212.984 180.814 213.393 180.814 213.873V215.531C180.814 215.914 180.835 216.252 180.878 216.545C180.925 216.838 180.993 217.092 181.083 217.307C181.173 217.518 181.282 217.691 181.411 217.828C181.54 217.965 181.689 218.066 181.857 218.133C182.029 218.195 182.218 218.227 182.425 218.227C182.691 218.227 182.923 218.176 183.122 218.074C183.321 217.973 183.487 217.814 183.62 217.6C183.757 217.381 183.859 217.102 183.925 216.762C183.991 216.418 184.025 216.008 184.025 215.531Z" fill="#8D91A5"/>
<rect x="232.5" width="1" height="200" fill="#DCDDE8"/>
<path d="M232.038 216.691C232.038 217.211 231.917 217.652 231.675 218.016C231.436 218.375 231.112 218.648 230.702 218.836C230.296 219.023 229.837 219.117 229.325 219.117C228.813 219.117 228.352 219.023 227.942 218.836C227.532 218.648 227.208 218.375 226.97 218.016C226.731 217.652 226.612 217.211 226.612 216.691C226.612 216.352 226.677 216.041 226.805 215.76C226.938 215.475 227.124 215.227 227.362 215.016C227.604 214.805 227.889 214.643 228.218 214.529C228.55 214.412 228.915 214.354 229.313 214.354C229.837 214.354 230.304 214.455 230.714 214.658C231.124 214.857 231.446 215.133 231.68 215.484C231.919 215.836 232.038 216.238 232.038 216.691ZM230.948 216.668C230.948 216.352 230.88 216.072 230.743 215.83C230.606 215.584 230.415 215.393 230.169 215.256C229.923 215.119 229.637 215.051 229.313 215.051C228.981 215.051 228.694 215.119 228.452 215.256C228.214 215.393 228.028 215.584 227.895 215.83C227.762 216.072 227.696 216.352 227.696 216.668C227.696 216.996 227.761 217.277 227.889 217.512C228.022 217.742 228.21 217.92 228.452 218.045C228.698 218.166 228.989 218.227 229.325 218.227C229.661 218.227 229.95 218.166 230.192 218.045C230.434 217.92 230.62 217.742 230.749 217.512C230.882 217.277 230.948 216.996 230.948 216.668ZM231.839 212.689C231.839 213.104 231.729 213.477 231.511 213.809C231.292 214.141 230.993 214.402 230.614 214.594C230.235 214.785 229.805 214.881 229.325 214.881C228.837 214.881 228.401 214.785 228.018 214.594C227.639 214.402 227.343 214.141 227.128 213.809C226.913 213.477 226.805 213.104 226.805 212.689C226.805 212.193 226.913 211.771 227.128 211.424C227.346 211.076 227.645 210.811 228.024 210.627C228.403 210.443 228.835 210.352 229.319 210.352C229.807 210.352 230.241 210.443 230.62 210.627C230.999 210.811 231.296 211.076 231.511 211.424C231.729 211.771 231.839 212.193 231.839 212.689ZM230.755 212.707C230.755 212.422 230.694 212.17 230.573 211.951C230.452 211.732 230.284 211.561 230.069 211.436C229.854 211.307 229.604 211.242 229.319 211.242C229.034 211.242 228.784 211.303 228.569 211.424C228.358 211.541 228.192 211.709 228.071 211.928C227.954 212.146 227.895 212.406 227.895 212.707C227.895 213 227.954 213.256 228.071 213.475C228.192 213.693 228.36 213.863 228.575 213.984C228.79 214.105 229.04 214.166 229.325 214.166C229.61 214.166 229.858 214.105 230.069 213.984C230.284 213.863 230.452 213.693 230.573 213.475C230.694 213.256 230.755 213 230.755 212.707ZM239.364 214.055V215.355C239.364 216.055 239.302 216.645 239.177 217.125C239.052 217.605 238.872 217.992 238.638 218.285C238.404 218.578 238.12 218.791 237.788 218.924C237.46 219.053 237.089 219.117 236.675 219.117C236.347 219.117 236.044 219.076 235.767 218.994C235.489 218.912 235.239 218.781 235.017 218.602C234.798 218.418 234.611 218.18 234.454 217.887C234.298 217.594 234.179 217.238 234.097 216.82C234.015 216.402 233.974 215.914 233.974 215.355V214.055C233.974 213.355 234.036 212.77 234.161 212.297C234.29 211.824 234.472 211.445 234.706 211.16C234.941 210.871 235.222 210.664 235.55 210.539C235.882 210.414 236.253 210.352 236.663 210.352C236.995 210.352 237.3 210.393 237.577 210.475C237.859 210.553 238.109 210.68 238.327 210.855C238.546 211.027 238.732 211.258 238.884 211.547C239.04 211.832 239.159 212.182 239.241 212.596C239.323 213.01 239.364 213.496 239.364 214.055ZM238.275 215.531V213.873C238.275 213.49 238.251 213.154 238.204 212.865C238.161 212.572 238.097 212.322 238.011 212.115C237.925 211.908 237.816 211.74 237.683 211.611C237.554 211.482 237.404 211.389 237.232 211.33C237.064 211.268 236.874 211.236 236.663 211.236C236.405 211.236 236.177 211.285 235.978 211.383C235.779 211.477 235.611 211.627 235.474 211.834C235.341 212.041 235.239 212.312 235.169 212.648C235.099 212.984 235.064 213.393 235.064 213.873V215.531C235.064 215.914 235.085 216.252 235.128 216.545C235.175 216.838 235.243 217.092 235.333 217.307C235.423 217.518 235.532 217.691 235.661 217.828C235.79 217.965 235.939 218.066 236.107 218.133C236.279 218.195 236.468 218.227 236.675 218.227C236.941 218.227 237.173 218.176 237.372 218.074C237.571 217.973 237.737 217.814 237.87 217.6C238.007 217.381 238.109 217.102 238.175 216.762C238.241 216.418 238.275 216.008 238.275 215.531Z" fill="#8D91A5"/>
</svg>
